<svg xmlns="http://www.w3.org/2000/svg" width="48" height="41.93" viewBox="0 0 48 41.93">
  <g>
    <path d="M41.815,21.672c-3.755-7.926-6.56-6.123-18.139-6.123v3c-5.6,8.27-13.9,6.735-21.447,2.439A1.5,1.5,0,0,0,.006,22.426c.905,10.43,6.916,19.5,20.843,19.5C39.223,41.931,46.054,30.624,41.815,21.672Z" fill="#ffbd66"/>
    <circle cx="30.036" cy="10.365" r="10.365" fill="#fddc85"/>
    <g>
      <path d="M40.39,8.511,40.2,8.348A1.1,1.1,0,0,0,40.39,8.511Z" fill="#c6c6c6"/>
      <path d="M45.974,8.113c-3.623,1.38-5.111.735-5.584.4l.011.009s-4.579,1.846-2.59,6.414a9.624,9.624,0,0,0,2.117.3C47.018,15.633,50.487,6.393,45.974,8.113Z" fill="#c6c6c6"/>
    </g>
    <circle cx="33.194" cy="6.956" r="2.25" fill="#7a8e9b"/>
    <path d="M33.194,9.956a3,3,0,1,1,3-3A3,3,0,0,1,33.194,9.956Zm0-4.5a1.5,1.5,0,1,0,1.5,1.5A1.5,1.5,0,0,0,33.194,5.456Z" fill="#ffbd66"/>
    <path d="M31.3,25.588a9.521,9.521,0,0,1-7.258.006c-3.728,4.176-7.689,4.063-11.479,3.272,1.368,5.3,8.281,9.03,15.069,7.059C35.971,33.5,34.138,27.3,31.3,25.588Z" fill="#fddc85"/>
  </g>
</svg>
